<?xml version="1.0" encoding="UTF-8" standalone="no"?><!DOCTYPE svg PUBLIC "-//W3C//DTD SVG 1.1//EN" "http://www.w3.org/Graphics/SVG/1.1/DTD/svg11.dtd"><svg width="100%" height="100%" viewBox="0 0 209 75" version="1.1" xmlns="http://www.w3.org/2000/svg" xmlns:xlink="http://www.w3.org/1999/xlink" xml:space="preserve" xmlns:serif="http://www.serif.com/" style="fill-rule:evenodd;clip-rule:evenodd;stroke-linecap:square;stroke-miterlimit:1.5;"><rect id="Pattern" x="0" y="0" width="208.192" height="74.176" style="fill:none;"/><g><rect x="0.981" y="1.055" width="12.125" height="72" style="fill:#ebebeb;stroke:#000;stroke-width:1px;"/><rect x="13.075" y="1.055" width="12.125" height="72" style="stroke:#000;stroke-width:1px;"/><rect x="25.185" y="1.055" width="12.125" height="72" style="fill:#ebebeb;stroke:#000;stroke-width:1px;"/><rect x="37.299" y="1.055" width="12.125" height="72" style="stroke:#000;stroke-width:1px;"/><rect x="49.443" y="1.055" width="12.125" height="72" style="fill:#ebebeb;stroke:#000;stroke-width:1px;"/><rect x="61.529" y="1.055" width="12.125" height="72" style="fill:#ebebeb;stroke:#000;stroke-width:1px;"/><rect x="73.59" y="1.055" width="12.125" height="72" style="stroke:#000;stroke-width:1px;"/><rect x="85.76" y="1.055" width="12.125" height="72" style="fill:#ebebeb;stroke:#000;stroke-width:1px;"/><rect x="97.811" y="1.055" width="12.125" height="72" style="stroke:#000;stroke-width:1px;"/><rect x="109.973" y="1.055" width="12.125" height="72" style="fill:#ebebeb;stroke:#000;stroke-width:1px;"/><rect x="122.052" y="1.055" width="12.125" height="72" style="stroke:#000;stroke-width:1px;"/><rect x="134.111" y="1.055" width="12.125" height="72" style="fill:#ebebeb;stroke:#000;stroke-width:1px;"/><rect x="146.24" y="1.055" width="12.125" height="72" style="fill:#ebebeb;stroke:#000;stroke-width:1px;"/><rect x="158.398" y="1.055" width="12.125" height="72" style="stroke:#000;stroke-width:1px;"/><rect x="170.536" y="1.055" width="12.125" height="72" style="fill:#ebebeb;stroke:#000;stroke-width:1px;"/><rect x="182.76" y="1.055" width="12.125" height="72" style="stroke:#000;stroke-width:1px;"/><rect x="194.929" y="1.055" width="12.125" height="72" style="fill:#ebebeb;stroke:#000;stroke-width:1px;"/></g></svg>