<?xml version="1.0" encoding="UTF-8" standalone="no"?><!DOCTYPE svg PUBLIC "-//W3C//DTD SVG 1.1//EN" "http://www.w3.org/Graphics/SVG/1.1/DTD/svg11.dtd"><svg width="100%" height="100%" viewBox="0 0 609 310" version="1.1" xmlns="http://www.w3.org/2000/svg" xmlns:xlink="http://www.w3.org/1999/xlink" xml:space="preserve" xmlns:serif="http://www.serif.com/" style="fill-rule:evenodd;clip-rule:evenodd;stroke-linecap:round;stroke-linejoin:round;stroke-miterlimit:1.5;"><rect id="One-Octave" serif:id="One Octave" x="0" y="0" width="608.203" height="309.067" style="fill:none;"/><g><rect x="4.089" y="4.394" width="75" height="300" style="fill:#ebebeb;stroke:#000;stroke-width:4.17px;"/><rect x="79.089" y="4.394" width="75" height="300" style="fill:#ebebeb;stroke:#000;stroke-width:4.17px;"/><rect x="304.089" y="4.394" width="75" height="300" style="fill:#ebebeb;stroke:#000;stroke-width:4.17px;"/><rect x="379.089" y="4.394" width="75" height="300" style="fill:#ebebeb;stroke:#000;stroke-width:4.17px;"/><rect x="454.089" y="4.394" width="75" height="300" style="fill:#ebebeb;stroke:#000;stroke-width:4.17px;"/><rect x="529.089" y="4.394" width="75" height="300" style="fill:#ebebeb;stroke:#000;stroke-width:4.17px;"/><rect x="229.089" y="4.394" width="75" height="300" style="fill:#ebebeb;stroke:#000;stroke-width:4.17px;"/><rect x="154.089" y="4.394" width="75" height="300" style="fill:#ebebeb;stroke:#000;stroke-width:4.17px;"/></g><g><rect x="54.089" y="4.394" width="50" height="166.667"/><path d="M104.089,171.061l-50,0l0,-166.667l50,0l0,166.667Zm-45.833,-162.5l0,158.333l41.667,0l0,-158.333l-41.667,0Z"/><rect x="129.089" y="4.394" width="50" height="166.667"/><path d="M179.089,171.061l-50,0l0,-166.667l50,0l0,166.667Zm-45.833,-162.5l0,158.333l41.667,0l0,-158.333l-41.667,0Z"/><rect x="279.089" y="4.394" width="50" height="166.667"/><path d="M329.089,171.061l-50,0l0,-166.667l50,0l0,166.667Zm-45.833,-162.5l0,158.333l41.667,0l0,-158.333l-41.667,0Z"/><rect x="354.089" y="4.394" width="50" height="166.667"/><path d="M404.089,171.061l-50,0l0,-166.667l50,0l0,166.667Zm-45.833,-162.5l0,158.333l41.667,0l0,-158.333l-41.667,0Z"/><rect x="429.089" y="4.394" width="50" height="166.667"/><path d="M479.089,171.061l-50,0l0,-166.667l50,0l0,166.667Zm-45.833,-162.5l0,158.333l41.667,0l0,-158.333l-41.667,0Z"/><rect x="578.365" y="4.394" width="26.888" height="166.667"/><path d="M605.253,171.061l-26.888,0l0,-166.667l26.888,0l0,166.667Zm-22.721,-162.5l0,158.333l18.555,0l0,-158.333l-18.555,0Z"/></g><g id="Natural-Notes" serif:id="Natural Notes"><path d="M22.712,259.566c0,-4.25 0.55,-8.1 1.65,-11.55c1.1,-3.45 2.625,-6.4 4.575,-8.85c1.95,-2.45 4.262,-4.338 6.937,-5.663c2.675,-1.325 5.613,-1.987 8.813,-1.987c2,0 3.825,0.187 5.475,0.562c1.65,0.375 3.112,0.888 4.387,1.538c1.275,0.65 2.4,1.375 3.375,2.175c0.975,0.8 1.813,1.65 2.513,2.55l-8.7,12.375c-0.65,-0.85 -1.375,-1.613 -2.175,-2.288c-0.8,-0.675 -1.925,-1.012 -3.375,-1.012c-1.05,0 -1.988,0.3 -2.813,0.9c-0.825,0.6 -1.537,1.437 -2.137,2.512c-0.6,1.075 -1.05,2.363 -1.35,3.863c-0.3,1.5 -0.45,3.125 -0.45,4.875c0,1.75 0.15,3.35 0.45,4.8c0.3,1.45 0.75,2.712 1.35,3.787c0.6,1.075 1.325,1.913 2.175,2.513c0.85,0.6 1.8,0.9 2.85,0.9c1.2,0 2.237,-0.338 3.112,-1.013c0.875,-0.675 1.588,-1.412 2.138,-2.212l9.075,12c-0.75,1 -1.625,1.937 -2.625,2.812c-1,0.875 -2.138,1.638 -3.413,2.288c-1.275,0.65 -2.725,1.175 -4.35,1.575c-1.625,0.4 -3.462,0.6 -5.512,0.6c-3.2,0 -6.138,-0.675 -8.813,-2.025c-2.675,-1.35 -4.987,-3.263 -6.937,-5.738c-1.95,-2.475 -3.475,-5.425 -4.575,-8.85c-1.1,-3.425 -1.65,-7.237 -1.65,-11.437Z" style="fill-rule:nonzero;"/><path d="M96.689,286.116l0,-53.1l17.1,0c4.35,0 8.037,0.662 11.062,1.987c3.025,1.325 5.475,3.163 7.35,5.513c1.875,2.35 3.238,5.162 4.088,8.437c0.85,3.275 1.275,6.863 1.275,10.763c0,3.85 -0.425,7.387 -1.275,10.612c-0.85,3.225 -2.213,6 -4.088,8.325c-1.875,2.325 -4.325,4.15 -7.35,5.475c-3.025,1.325 -6.712,1.988 -11.062,1.988l-17.1,0Zm24.45,-26.4c0,-3.95 -0.625,-7.013 -1.875,-9.188c-1.25,-2.175 -2.975,-3.262 -5.175,-3.262l-0.975,0l0,24.6l0.975,0c2.2,0 3.925,-1.088 5.175,-3.263c1.25,-2.175 1.875,-5.137 1.875,-8.887Z" style="fill-rule:nonzero;"/><path d="M176.381,233.016l28.35,0l0,14.325l-12.825,0l0,5.325l11.625,0l0,13.275l-11.625,0l0,5.625l13.8,0l0,14.55l-29.325,0l0,-53.1Z" style="fill-rule:nonzero;"/><path d="M269.305,253.341l11.55,0l0,13.95l-11.475,0l0,18.825l-16.2,0l0,-53.1l28.725,0l0,14.7l-12.6,0l0,5.625Z" style="fill-rule:nonzero;"/><path d="M344.915,287.503c-3.55,0 -6.738,-0.675 -9.563,-2.025c-2.825,-1.35 -5.212,-3.25 -7.162,-5.7c-1.95,-2.45 -3.45,-5.375 -4.5,-8.775c-1.05,-3.4 -1.575,-7.175 -1.575,-11.325c0,-4.25 0.537,-8.1 1.612,-11.55c1.075,-3.45 2.588,-6.4 4.538,-8.85c1.95,-2.45 4.275,-4.337 6.975,-5.662c2.7,-1.325 5.65,-1.988 8.85,-1.988c2.1,0 4,0.188 5.7,0.563c1.7,0.375 3.225,0.862 4.575,1.462c1.35,0.6 2.512,1.288 3.487,2.063c0.975,0.775 1.813,1.562 2.513,2.362l-8.475,12.225c-0.75,-0.9 -1.625,-1.612 -2.625,-2.137c-1,-0.525 -2.25,-0.788 -3.75,-0.788c-1.35,0 -2.5,0.338 -3.45,1.013c-0.95,0.675 -1.75,1.575 -2.4,2.7c-0.65,1.125 -1.125,2.425 -1.425,3.9c-0.3,1.475 -0.45,3.037 -0.45,4.687c0,1.55 0.125,3.075 0.375,4.575c0.25,1.5 0.65,2.838 1.2,4.013c0.55,1.175 1.275,2.125 2.175,2.85c0.9,0.725 2,1.087 3.3,1.087c0.9,0 1.675,-0.175 2.325,-0.525l0,-4.575l-4.65,0l0,-14.175l18.3,0l0,30.3c-1.8,1.3 -4.025,2.338 -6.675,3.113c-2.65,0.775 -5.725,1.162 -9.225,1.162Z" style="fill-rule:nonzero;"/><path d="M420.979,278.766l-9.15,0l-1.425,7.35l-16.275,0l12.525,-53.1l20.175,0l12.6,53.1l-17.025,0l-1.425,-7.35Zm-7.35,-12.6l5.4,0l-2.475,-17.25l-0.3,0l-2.625,17.25Z" style="fill-rule:nonzero;"/><path d="M488.116,246.441l0,6.975l2.7,0c1.05,0 1.888,-0.288 2.513,-0.863c0.625,-0.575 0.937,-1.512 0.937,-2.812c0,-1.1 -0.325,-1.925 -0.975,-2.475c-0.65,-0.55 -1.475,-0.825 -2.475,-0.825l-2.7,0Zm0,18.525l0,7.65l2.85,0c1.15,0 2.088,-0.338 2.813,-1.013c0.725,-0.675 1.087,-1.587 1.087,-2.737c0,-1.35 -0.4,-2.338 -1.2,-2.963c-0.8,-0.625 -1.7,-0.937 -2.7,-0.937l-2.85,0Zm14.25,-6.3c2.1,0.65 3.938,1.975 5.513,3.975c1.575,2 2.362,4.65 2.362,7.95c0,2.9 -0.475,5.337 -1.425,7.312c-0.95,1.975 -2.212,3.575 -3.787,4.8c-1.575,1.225 -3.375,2.1 -5.4,2.625c-2.025,0.525 -4.113,0.788 -6.263,0.788l-20.325,0l0,-53.1l18.45,0c1.75,0 3.625,0.162 5.625,0.487c2,0.325 3.838,0.975 5.513,1.95c1.675,0.975 3.062,2.4 4.162,4.275c1.1,1.875 1.65,4.338 1.65,7.388c0,2.85 -0.562,5.2 -1.687,7.05c-1.125,1.85 -2.613,3.275 -4.463,4.275l0.075,0.225Z" style="fill-rule:nonzero;"/><path d="M538.311,260.316c0,-4.25 0.55,-8.1 1.65,-11.55c1.1,-3.45 2.625,-6.4 4.575,-8.85c1.95,-2.45 4.263,-4.338 6.938,-5.663c2.675,-1.325 5.612,-1.987 8.812,-1.987c2,0 3.825,0.187 5.475,0.562c1.65,0.375 3.113,0.888 4.388,1.538c1.275,0.65 2.4,1.375 3.375,2.175c0.975,0.8 1.812,1.65 2.512,2.55l-8.7,12.375c-0.65,-0.85 -1.375,-1.613 -2.175,-2.288c-0.8,-0.675 -1.925,-1.012 -3.375,-1.012c-1.05,0 -1.987,0.3 -2.812,0.9c-0.825,0.6 -1.538,1.437 -2.138,2.512c-0.6,1.075 -1.05,2.363 -1.35,3.863c-0.3,1.5 -0.45,3.125 -0.45,4.875c0,1.75 0.15,3.35 0.45,4.8c0.3,1.45 0.75,2.712 1.35,3.787c0.6,1.075 1.325,1.913 2.175,2.513c0.85,0.6 1.8,0.9 2.85,0.9c1.2,0 2.238,-0.338 3.113,-1.013c0.875,-0.675 1.587,-1.412 2.137,-2.212l9.075,12c-0.75,1 -1.625,1.937 -2.625,2.812c-1,0.875 -2.137,1.638 -3.412,2.288c-1.275,0.65 -2.725,1.175 -4.35,1.575c-1.625,0.4 -3.463,0.6 -5.513,0.6c-3.2,0 -6.137,-0.675 -8.812,-2.025c-2.675,-1.35 -4.988,-3.263 -6.938,-5.738c-1.95,-2.475 -3.475,-5.425 -4.575,-8.85c-1.1,-3.425 -1.65,-7.237 -1.65,-11.437Z" style="fill-rule:nonzero;"/><path d="M576.261,230.766l12.075,0l6.375,10.8l-9.675,0l-8.775,-10.8Z" style="fill-rule:nonzero;"/></g><g id="Chromatic"><path d="M58.008,99.992c0,-2.361 0.306,-4.5 0.917,-6.417c0.611,-1.916 1.458,-3.555 2.542,-4.916c1.083,-1.362 2.368,-2.41 3.854,-3.146c1.486,-0.736 3.118,-1.104 4.896,-1.104c1.111,0 2.125,0.104 3.041,0.312c0.917,0.208 1.73,0.493 2.438,0.854c0.708,0.361 1.333,0.764 1.875,1.209c0.542,0.444 1.007,0.916 1.396,1.416l-4.834,6.875c-0.361,-0.472 -0.763,-0.896 -1.208,-1.271c-0.444,-0.375 -1.069,-0.562 -1.875,-0.562c-0.583,0 -1.104,0.167 -1.562,0.5c-0.459,0.333 -0.855,0.799 -1.188,1.396c-0.333,0.597 -0.583,1.312 -0.75,2.146c-0.167,0.833 -0.25,1.736 -0.25,2.708c0,0.972 0.083,1.861 0.25,2.667c0.167,0.805 0.417,1.507 0.75,2.104c0.333,0.597 0.736,1.062 1.208,1.396c0.473,0.333 1,0.5 1.584,0.5c0.666,0 1.243,-0.188 1.729,-0.563c0.486,-0.375 0.882,-0.785 1.187,-1.229l5.042,6.667c-0.417,0.555 -0.903,1.076 -1.458,1.562c-0.556,0.486 -1.188,0.91 -1.896,1.271c-0.708,0.361 -1.514,0.653 -2.417,0.875c-0.902,0.222 -1.923,0.333 -3.062,0.333c-1.778,0 -3.41,-0.375 -4.896,-1.125c-1.486,-0.75 -2.771,-1.812 -3.854,-3.187c-1.084,-1.375 -1.931,-3.014 -2.542,-4.917c-0.611,-1.903 -0.917,-4.021 -0.917,-6.354Z" style="fill:#fff;fill-rule:nonzero;"/><path d="M94.008,101.367l2.417,0l0,5.583l-3,0l-0.833,7.792l-4.584,0l0.834,-7.792l-1.292,0l-0.875,7.792l-4.583,0l0.833,-7.792l-2.417,0l0,-5.583l3,0l0.334,-2.75l-2.459,0l0,-5.583l3,0l0.834,-7.792l4.625,0l-0.834,7.792l1.292,0l0.875,-7.792l4.583,0l-0.875,7.792l2.417,0l0,5.583l-3,0l-0.292,2.75Zm-5.875,0l1.292,0l0.333,-2.75l-1.375,0l-0.25,2.75Z" style="fill:#fff;fill-rule:nonzero;"/><path d="M295.279,96.534l6.416,0l0,7.75l-6.375,0l0,10.458l-9,0l0,-29.5l15.959,0l0,8.167l-7,0l0,3.125Z" style="fill:#fff;fill-rule:nonzero;"/><path d="M317.987,101.367l2.417,0l0,5.583l-3,0l-0.834,7.792l-4.583,0l0.833,-7.792l-1.291,0l-0.875,7.792l-4.584,0l0.834,-7.792l-2.417,0l0,-5.583l3,0l0.333,-2.75l-2.458,0l0,-5.583l3,0l0.833,-7.792l4.625,0l-0.833,7.792l1.292,0l0.875,-7.792l4.583,0l-0.875,7.792l2.417,0l0,5.583l-3,0l-0.292,2.75Zm-5.875,0l1.292,0l0.333,-2.75l-1.375,0l-0.25,2.75Z" style="fill:#fff;fill-rule:nonzero;"/><path d="M370.087,115.45c-1.973,0 -3.743,-0.375 -5.313,-1.125c-1.569,-0.75 -2.896,-1.805 -3.979,-3.166c-1.083,-1.362 -1.917,-2.987 -2.5,-4.875c-0.583,-1.889 -0.875,-3.987 -0.875,-6.292c0,-2.361 0.299,-4.5 0.896,-6.417c0.597,-1.916 1.437,-3.555 2.521,-4.916c1.083,-1.362 2.375,-2.41 3.875,-3.146c1.5,-0.736 3.139,-1.104 4.916,-1.104c1.167,0 2.223,0.104 3.167,0.312c0.944,0.208 1.792,0.479 2.542,0.813c0.75,0.333 1.396,0.715 1.937,1.145c0.542,0.431 1.007,0.868 1.396,1.313l-4.708,6.792c-0.417,-0.5 -0.903,-0.896 -1.459,-1.188c-0.555,-0.292 -1.25,-0.437 -2.083,-0.437c-0.75,0 -1.389,0.187 -1.917,0.562c-0.527,0.375 -0.972,0.875 -1.333,1.5c-0.361,0.625 -0.625,1.347 -0.792,2.167c-0.166,0.819 -0.25,1.687 -0.25,2.604c0,0.861 0.07,1.708 0.209,2.542c0.139,0.833 0.361,1.576 0.666,2.229c0.306,0.653 0.709,1.18 1.209,1.583c0.5,0.403 1.111,0.604 1.833,0.604c0.5,0 0.931,-0.097 1.292,-0.291l0,-2.542l-2.584,0l0,-7.875l10.167,0l0,16.833c-1,0.722 -2.236,1.299 -3.708,1.729c-1.473,0.431 -3.181,0.646 -5.125,0.646Z" style="fill:#fff;fill-rule:nonzero;"/><path d="M395.378,101.367l2.417,0l0,5.583l-3,0l-0.833,7.792l-4.584,0l0.834,-7.792l-1.292,0l-0.875,7.792l-4.583,0l0.833,-7.792l-2.417,0l0,-5.583l3,0l0.334,-2.75l-2.459,0l0,-5.583l3,0l0.834,-7.792l4.625,0l-0.834,7.792l1.292,0l0.875,-7.792l4.583,0l-0.875,7.792l2.417,0l0,5.583l-3,0l-0.292,2.75Zm-5.875,0l1.292,0l0.333,-2.75l-1.375,0l-0.25,2.75Z" style="fill:#fff;fill-rule:nonzero;"/><path d="M445.851,110.659l-5.083,0l-0.792,4.083l-9.042,0l6.959,-29.5l11.208,0l7,29.5l-9.458,0l-0.792,-4.083Zm-4.083,-7l3,0l-1.375,-9.584l-0.167,0l-1.458,9.584Z" style="fill:#fff;fill-rule:nonzero;"/><path d="M470.851,101.367l2.417,0l0,5.583l-3,0l-0.834,7.792l-4.583,0l0.833,-7.792l-1.291,0l-0.875,7.792l-4.584,0l0.834,-7.792l-2.417,0l0,-5.583l3,0l0.333,-2.75l-2.458,0l0,-5.583l3,0l0.833,-7.792l4.625,0l-0.833,7.792l1.292,0l0.875,-7.792l4.583,0l-0.875,7.792l2.417,0l0,5.583l-3,0l-0.292,2.75Zm-5.875,0l1.292,0l0.333,-2.75l-1.375,0l-0.25,2.75Z" style="fill:#fff;fill-rule:nonzero;"/><path d="M133.446,114.742l0,-29.5l9.5,0c2.417,0 4.465,0.368 6.146,1.104c1.68,0.736 3.041,1.757 4.083,3.063c1.042,1.305 1.799,2.868 2.271,4.687c0.472,1.82 0.708,3.813 0.708,5.979c0,2.139 -0.236,4.104 -0.708,5.896c-0.472,1.792 -1.229,3.333 -2.271,4.625c-1.042,1.292 -2.403,2.306 -4.083,3.042c-1.681,0.736 -3.729,1.104 -6.146,1.104l-9.5,0Zm13.583,-14.667c0,-2.194 -0.347,-3.896 -1.041,-5.104c-0.695,-1.208 -1.653,-1.812 -2.875,-1.812l-0.542,0l0,13.666l0.542,0c1.222,0 2.18,-0.604 2.875,-1.812c0.694,-1.209 1.041,-2.854 1.041,-4.938Z" style="fill:#fff;fill-rule:nonzero;"/><path d="M172.071,101.367l2.417,0l0,5.583l-3,0l-0.834,7.792l-4.583,0l0.833,-7.792l-1.291,0l-0.875,7.792l-4.584,0l0.834,-7.792l-2.417,0l0,-5.583l3,0l0.333,-2.75l-2.458,0l0,-5.583l3,0l0.833,-7.792l4.625,0l-0.833,7.792l1.292,0l0.875,-7.792l4.583,0l-0.875,7.792l2.417,0l0,5.583l-3,0l-0.292,2.75Zm-5.875,0l1.292,0l0.333,-2.75l-1.375,0l-0.25,2.75Z" style="fill:#fff;fill-rule:nonzero;"/><path d="M55.488,158.492l0,-29.5l9.5,0c2.416,0 4.465,0.368 6.145,1.104c1.681,0.736 3.042,1.757 4.084,3.063c1.041,1.305 1.798,2.868 2.271,4.687c0.472,1.82 0.708,3.813 0.708,5.979c0,2.139 -0.236,4.104 -0.708,5.896c-0.473,1.792 -1.23,3.333 -2.271,4.625c-1.042,1.292 -2.403,2.306 -4.084,3.042c-1.68,0.736 -3.729,1.104 -6.145,1.104l-9.5,0Zm13.583,-14.667c0,-2.194 -0.347,-3.896 -1.042,-5.104c-0.694,-1.208 -1.652,-1.812 -2.875,-1.812l-0.541,0l0,13.666l0.541,0c1.223,0 2.181,-0.604 2.875,-1.812c0.695,-1.209 1.042,-2.854 1.042,-4.938Z" style="fill:#fff;fill-rule:nonzero;"/><path d="M81.279,158.492l0,-31.5l8.417,0l0,10.833l0.167,0c0.222,-0.611 0.708,-1.159 1.458,-1.646c0.75,-0.486 1.611,-0.729 2.583,-0.729c1.25,0 2.348,0.299 3.292,0.896c0.944,0.597 1.736,1.41 2.375,2.438c0.639,1.027 1.118,2.236 1.437,3.625c0.32,1.388 0.48,2.875 0.48,4.458c0,1.667 -0.167,3.243 -0.5,4.729c-0.334,1.486 -0.827,2.792 -1.48,3.917c-0.652,1.125 -1.451,2.014 -2.395,2.666c-0.945,0.653 -2.014,0.98 -3.209,0.98c-1.25,0 -2.215,-0.292 -2.896,-0.875c-0.68,-0.584 -1.173,-1.25 -1.479,-2l-0.083,0l0,2.208l-8.167,0Zm9.917,-15.708c-0.667,0 -1.16,0.437 -1.479,1.312c-0.32,0.875 -0.479,1.938 -0.479,3.188c0,0.611 0.041,1.187 0.125,1.729c0.083,0.541 0.201,1.021 0.354,1.437c0.153,0.417 0.354,0.743 0.604,0.979c0.25,0.237 0.542,0.355 0.875,0.355c0.361,0 0.674,-0.118 0.937,-0.355c0.264,-0.236 0.48,-0.562 0.646,-0.979c0.167,-0.416 0.285,-0.896 0.354,-1.437c0.07,-0.542 0.105,-1.118 0.105,-1.729c0,-1.25 -0.16,-2.313 -0.48,-3.188c-0.319,-0.875 -0.84,-1.312 -1.562,-1.312Z" style="fill:#fff;fill-rule:nonzero;"/><path d="M293.466,159.2c-1.972,0 -3.743,-0.375 -5.312,-1.125c-1.57,-0.75 -2.896,-1.805 -3.979,-3.166c-1.084,-1.362 -1.917,-2.987 -2.5,-4.875c-0.584,-1.889 -0.875,-3.987 -0.875,-6.292c0,-2.361 0.298,-4.5 0.895,-6.417c0.598,-1.916 1.438,-3.555 2.521,-4.916c1.084,-1.362 2.375,-2.41 3.875,-3.146c1.5,-0.736 3.139,-1.104 4.917,-1.104c1.167,0 2.222,0.104 3.167,0.312c0.944,0.208 1.791,0.479 2.541,0.813c0.75,0.333 1.396,0.715 1.938,1.145c0.541,0.431 1.007,0.868 1.396,1.313l-4.709,6.792c-0.416,-0.5 -0.902,-0.896 -1.458,-1.188c-0.556,-0.292 -1.25,-0.437 -2.083,-0.437c-0.75,0 -1.389,0.187 -1.917,0.562c-0.528,0.375 -0.972,0.875 -1.333,1.5c-0.361,0.625 -0.625,1.347 -0.792,2.167c-0.167,0.819 -0.25,1.687 -0.25,2.604c0,0.861 0.069,1.708 0.208,2.542c0.139,0.833 0.361,1.576 0.667,2.229c0.306,0.653 0.708,1.18 1.208,1.583c0.5,0.403 1.111,0.604 1.834,0.604c0.5,0 0.93,-0.097 1.291,-0.291l0,-2.542l-2.583,0l0,-7.875l10.167,0l0,16.833c-1,0.722 -2.236,1.299 -3.709,1.729c-1.472,0.431 -3.18,0.646 -5.125,0.646Z" style="fill:#fff;fill-rule:nonzero;"/><path d="M305.925,158.492l0,-31.5l8.416,0l0,10.833l0.167,0c0.222,-0.611 0.708,-1.159 1.458,-1.646c0.75,-0.486 1.611,-0.729 2.584,-0.729c1.25,0 2.347,0.299 3.291,0.896c0.945,0.597 1.736,1.41 2.375,2.438c0.639,1.027 1.118,2.236 1.438,3.625c0.319,1.388 0.479,2.875 0.479,4.458c0,1.667 -0.167,3.243 -0.5,4.729c-0.333,1.486 -0.826,2.792 -1.479,3.917c-0.653,1.125 -1.452,2.014 -2.396,2.666c-0.944,0.653 -2.014,0.98 -3.208,0.98c-1.25,0 -2.216,-0.292 -2.896,-0.875c-0.681,-0.584 -1.174,-1.25 -1.479,-2l-0.084,0l0,2.208l-8.166,0Zm9.916,-15.708c-0.666,0 -1.159,0.437 -1.479,1.312c-0.319,0.875 -0.479,1.938 -0.479,3.188c0,0.611 0.042,1.187 0.125,1.729c0.083,0.541 0.201,1.021 0.354,1.437c0.153,0.417 0.354,0.743 0.604,0.979c0.25,0.237 0.542,0.355 0.875,0.355c0.361,0 0.674,-0.118 0.938,-0.355c0.264,-0.236 0.479,-0.562 0.646,-0.979c0.166,-0.416 0.284,-0.896 0.354,-1.437c0.069,-0.542 0.104,-1.118 0.104,-1.729c0,-1.25 -0.16,-2.313 -0.479,-3.188c-0.32,-0.875 -0.84,-1.312 -1.563,-1.312Z" style="fill:#fff;fill-rule:nonzero;"/><path d="M368.983,154.409l-5.084,0l-0.791,4.083l-9.042,0l6.958,-29.5l11.209,0l7,29.5l-9.459,0l-0.791,-4.083Zm-4.084,-7l3,0l-1.375,-9.584l-0.166,0l-1.459,9.584Z" style="fill:#fff;fill-rule:nonzero;"/><path d="M381.149,158.492l0,-31.5l8.417,0l0,10.833l0.167,0c0.222,-0.611 0.708,-1.159 1.458,-1.646c0.75,-0.486 1.611,-0.729 2.583,-0.729c1.25,0 2.347,0.299 3.292,0.896c0.944,0.597 1.736,1.41 2.375,2.438c0.639,1.027 1.118,2.236 1.437,3.625c0.32,1.388 0.48,2.875 0.48,4.458c0,1.667 -0.167,3.243 -0.5,4.729c-0.334,1.486 -0.827,2.792 -1.48,3.917c-0.652,1.125 -1.451,2.014 -2.395,2.666c-0.945,0.653 -2.014,0.98 -3.209,0.98c-1.25,0 -2.215,-0.292 -2.896,-0.875c-0.68,-0.584 -1.173,-1.25 -1.479,-2l-0.083,0l0,2.208l-8.167,0Zm9.917,-15.708c-0.667,0 -1.16,0.437 -1.479,1.312c-0.32,0.875 -0.479,1.938 -0.479,3.188c0,0.611 0.041,1.187 0.125,1.729c0.083,0.541 0.201,1.021 0.354,1.437c0.152,0.417 0.354,0.743 0.604,0.979c0.25,0.237 0.542,0.355 0.875,0.355c0.361,0 0.673,-0.118 0.937,-0.355c0.264,-0.236 0.48,-0.562 0.646,-0.979c0.167,-0.416 0.285,-0.896 0.354,-1.437c0.07,-0.542 0.105,-1.118 0.105,-1.729c0,-1.25 -0.16,-2.313 -0.48,-3.188c-0.319,-0.875 -0.84,-1.312 -1.562,-1.312Z" style="fill:#fff;fill-rule:nonzero;"/><path d="M440.184,136.45l0,3.875l1.5,0c0.584,0 1.049,-0.159 1.396,-0.479c0.347,-0.319 0.521,-0.84 0.521,-1.562c0,-0.612 -0.181,-1.07 -0.542,-1.375c-0.361,-0.306 -0.819,-0.459 -1.375,-0.459l-1.5,0Zm0,10.292l0,4.25l1.584,0c0.639,0 1.159,-0.188 1.562,-0.563c0.403,-0.375 0.604,-0.882 0.604,-1.52c0,-0.75 -0.222,-1.299 -0.666,-1.646c-0.445,-0.347 -0.945,-0.521 -1.5,-0.521l-1.584,0Zm7.917,-3.5c1.167,0.361 2.188,1.097 3.063,2.208c0.875,1.111 1.312,2.584 1.312,4.417c0,1.611 -0.264,2.965 -0.792,4.062c-0.527,1.098 -1.229,1.987 -2.104,2.667c-0.875,0.681 -1.875,1.167 -3,1.458c-1.125,0.292 -2.285,0.438 -3.479,0.438l-11.292,0l0,-29.5l10.25,0c0.973,0 2.014,0.09 3.125,0.271c1.111,0.18 2.132,0.541 3.063,1.083c0.93,0.542 1.701,1.333 2.312,2.375c0.611,1.042 0.917,2.41 0.917,4.104c0,1.584 -0.312,2.889 -0.937,3.917c-0.625,1.028 -1.452,1.819 -2.48,2.375l0.042,0.125Z" style="fill:#fff;fill-rule:nonzero;"/><path d="M455.893,158.492l0,-31.5l8.416,0l0,10.833l0.167,0c0.222,-0.611 0.708,-1.159 1.458,-1.646c0.75,-0.486 1.611,-0.729 2.584,-0.729c1.25,0 2.347,0.299 3.291,0.896c0.945,0.597 1.736,1.41 2.375,2.438c0.639,1.027 1.118,2.236 1.438,3.625c0.319,1.388 0.479,2.875 0.479,4.458c0,1.667 -0.167,3.243 -0.5,4.729c-0.333,1.486 -0.826,2.792 -1.479,3.917c-0.653,1.125 -1.452,2.014 -2.396,2.666c-0.944,0.653 -2.014,0.98 -3.208,0.98c-1.25,0 -2.216,-0.292 -2.896,-0.875c-0.681,-0.584 -1.174,-1.25 -1.479,-2l-0.084,0l0,2.208l-8.166,0Zm9.916,-15.708c-0.666,0 -1.159,0.437 -1.479,1.312c-0.319,0.875 -0.479,1.938 -0.479,3.188c0,0.611 0.042,1.187 0.125,1.729c0.083,0.541 0.201,1.021 0.354,1.437c0.153,0.417 0.354,0.743 0.604,0.979c0.25,0.237 0.542,0.355 0.875,0.355c0.361,0 0.674,-0.118 0.938,-0.355c0.264,-0.236 0.479,-0.562 0.646,-0.979c0.166,-0.416 0.284,-0.896 0.354,-1.437c0.069,-0.542 0.104,-1.118 0.104,-1.729c0,-1.25 -0.16,-2.313 -0.479,-3.188c-0.32,-0.875 -0.84,-1.312 -1.563,-1.312Z" style="fill:#fff;fill-rule:nonzero;"/><path d="M134.863,128.992l15.75,0l0,7.958l-7.125,0l0,2.959l6.458,0l0,7.375l-6.458,0l0,3.125l7.666,0l0,8.083l-16.291,0l0,-29.5Z" style="fill:#fff;fill-rule:nonzero;"/><path d="M154.238,158.492l0,-31.5l8.416,0l0,10.833l0.167,0c0.222,-0.611 0.708,-1.159 1.458,-1.646c0.75,-0.486 1.611,-0.729 2.584,-0.729c1.25,0 2.347,0.299 3.291,0.896c0.945,0.597 1.736,1.41 2.375,2.438c0.639,1.027 1.118,2.236 1.438,3.625c0.319,1.388 0.479,2.875 0.479,4.458c0,1.667 -0.167,3.243 -0.5,4.729c-0.333,1.486 -0.826,2.792 -1.479,3.917c-0.653,1.125 -1.452,2.014 -2.396,2.666c-0.944,0.653 -2.014,0.98 -3.208,0.98c-1.25,0 -2.216,-0.292 -2.896,-0.875c-0.681,-0.584 -1.174,-1.25 -1.479,-2l-0.084,0l0,2.208l-8.166,0Zm9.916,-15.708c-0.666,0 -1.159,0.437 -1.479,1.312c-0.319,0.875 -0.479,1.938 -0.479,3.188c0,0.611 0.042,1.187 0.125,1.729c0.083,0.541 0.201,1.021 0.354,1.437c0.153,0.417 0.354,0.743 0.604,0.979c0.25,0.237 0.542,0.355 0.875,0.355c0.361,0 0.674,-0.118 0.938,-0.355c0.264,-0.236 0.479,-0.562 0.646,-0.979c0.166,-0.416 0.284,-0.896 0.354,-1.437c0.069,-0.542 0.104,-1.118 0.104,-1.729c0,-1.25 -0.16,-2.313 -0.479,-3.188c-0.32,-0.875 -0.84,-1.312 -1.563,-1.312Z" style="fill:#fff;fill-rule:nonzero;"/><path d="M181.675,202.492l6.417,0l0,7.75l-6.375,0l0,10.458l-9,0l0,-29.5l15.958,0l0,8.167l-7,0l0,3.125Z" style="fill-rule:nonzero;"/><path d="M191.55,220.7l0,-31.5l8.417,0l0,10.834l0.166,0c0.223,-0.612 0.709,-1.16 1.459,-1.646c0.75,-0.486 1.611,-0.729 2.583,-0.729c1.25,0 2.347,0.298 3.292,0.895c0.944,0.598 1.736,1.41 2.375,2.438c0.639,1.028 1.118,2.236 1.437,3.625c0.32,1.389 0.479,2.875 0.479,4.458c0,1.667 -0.166,3.243 -0.5,4.729c-0.333,1.487 -0.826,2.792 -1.479,3.917c-0.652,1.125 -1.451,2.014 -2.396,2.667c-0.944,0.653 -2.013,0.979 -3.208,0.979c-1.25,0 -2.215,-0.292 -2.896,-0.875c-0.68,-0.583 -1.173,-1.25 -1.479,-2l-0.083,0l0,2.208l-8.167,0Zm9.917,-15.708c-0.667,0 -1.16,0.437 -1.479,1.312c-0.32,0.875 -0.48,1.938 -0.48,3.188c0,0.611 0.042,1.187 0.125,1.729c0.084,0.542 0.202,1.021 0.355,1.438c0.152,0.416 0.354,0.743 0.604,0.979c0.25,0.236 0.541,0.354 0.875,0.354c0.361,0 0.673,-0.118 0.937,-0.354c0.264,-0.236 0.479,-0.563 0.646,-0.979c0.167,-0.417 0.285,-0.896 0.354,-1.438c0.07,-0.542 0.104,-1.118 0.104,-1.729c0,-1.25 -0.159,-2.313 -0.479,-3.188c-0.319,-0.875 -0.84,-1.312 -1.562,-1.312Z" style="fill-rule:nonzero;"/><path d="M250.279,190.534l15.75,0l0,7.958l-7.125,0l0,2.958l6.459,0l0,7.375l-6.459,0l0,3.125l7.667,0l0,8.084l-16.292,0l0,-29.5Z" style="fill-rule:nonzero;"/><path d="M282.488,206.659l2.416,0l0,5.583l-3,0l-0.833,7.792l-4.583,0l0.833,-7.792l-1.292,0l-0.875,7.792l-4.583,0l0.833,-7.792l-2.416,0l0,-5.583l3,0l0.333,-2.75l-2.458,0l0,-5.584l3,0l0.833,-7.791l4.625,0l-0.833,7.791l1.291,0l0.875,-7.791l4.584,0l-0.875,7.791l2.416,0l0,5.584l-3,0l-0.291,2.75Zm-5.875,0l1.291,0l0.334,-2.75l-1.375,0l-0.25,2.75Z" style="fill-rule:nonzero;"/><path d="M471.258,205.867c0,-2.361 0.306,-4.5 0.917,-6.417c0.611,-1.916 1.458,-3.555 2.542,-4.916c1.083,-1.362 2.368,-2.41 3.854,-3.146c1.486,-0.736 3.118,-1.104 4.896,-1.104c1.111,0 2.125,0.104 3.041,0.312c0.917,0.208 1.73,0.493 2.438,0.854c0.708,0.361 1.333,0.764 1.875,1.209c0.542,0.444 1.007,0.916 1.396,1.416l-4.834,6.875c-0.361,-0.472 -0.763,-0.896 -1.208,-1.271c-0.444,-0.375 -1.069,-0.562 -1.875,-0.562c-0.583,0 -1.104,0.167 -1.562,0.5c-0.459,0.333 -0.855,0.799 -1.188,1.396c-0.333,0.597 -0.583,1.312 -0.75,2.146c-0.167,0.833 -0.25,1.736 -0.25,2.708c0,0.972 0.083,1.861 0.25,2.667c0.167,0.805 0.417,1.507 0.75,2.104c0.333,0.597 0.736,1.062 1.208,1.396c0.473,0.333 1,0.5 1.584,0.5c0.666,0 1.243,-0.188 1.729,-0.563c0.486,-0.375 0.882,-0.785 1.187,-1.229l5.042,6.667c-0.417,0.555 -0.903,1.076 -1.458,1.562c-0.556,0.486 -1.188,0.91 -1.896,1.271c-0.708,0.361 -1.514,0.653 -2.417,0.875c-0.902,0.222 -1.923,0.333 -3.062,0.333c-1.778,0 -3.41,-0.375 -4.896,-1.125c-1.486,-0.75 -2.771,-1.812 -3.854,-3.187c-1.084,-1.375 -1.931,-3.014 -2.542,-4.917c-0.611,-1.903 -0.917,-4.021 -0.917,-6.354Z" style="fill-rule:nonzero;"/><path d="M494.425,220.617l0,-31.5l8.417,0l0,10.833l0.166,0c0.223,-0.611 0.709,-1.159 1.459,-1.646c0.75,-0.486 1.611,-0.729 2.583,-0.729c1.25,0 2.347,0.299 3.292,0.896c0.944,0.597 1.736,1.41 2.375,2.438c0.639,1.027 1.118,2.236 1.437,3.625c0.32,1.388 0.479,2.875 0.479,4.458c0,1.667 -0.166,3.243 -0.5,4.729c-0.333,1.486 -0.826,2.792 -1.479,3.917c-0.652,1.125 -1.451,2.014 -2.396,2.666c-0.944,0.653 -2.013,0.98 -3.208,0.98c-1.25,0 -2.215,-0.292 -2.896,-0.875c-0.68,-0.584 -1.173,-1.25 -1.479,-2l-0.083,0l0,2.208l-8.167,0Zm9.917,-15.708c-0.667,0 -1.16,0.437 -1.479,1.312c-0.32,0.875 -0.48,1.938 -0.48,3.188c0,0.611 0.042,1.187 0.125,1.729c0.084,0.541 0.202,1.021 0.355,1.437c0.152,0.417 0.354,0.743 0.604,0.979c0.25,0.237 0.541,0.355 0.875,0.355c0.361,0 0.673,-0.118 0.937,-0.355c0.264,-0.236 0.479,-0.562 0.646,-0.979c0.167,-0.416 0.285,-0.896 0.354,-1.437c0.07,-0.542 0.104,-1.118 0.104,-1.729c0,-1.25 -0.159,-2.313 -0.479,-3.188c-0.319,-0.875 -0.84,-1.312 -1.562,-1.312Z" style="fill-rule:nonzero;"/><path d="M556.047,197.992l0,3.875l1.577,0c0.613,0 1.102,-0.16 1.467,-0.479c0.365,-0.32 0.547,-0.841 0.547,-1.563c0,-0.611 -0.19,-1.069 -0.569,-1.375c-0.38,-0.305 -0.862,-0.458 -1.445,-0.458l-1.577,0Zm0,10.292l0,4.25l1.664,0c0.672,0 1.219,-0.188 1.642,-0.563c0.424,-0.375 0.635,-0.882 0.635,-1.521c0,-0.75 -0.233,-1.298 -0.7,-1.646c-0.467,-0.347 -0.993,-0.52 -1.577,-0.52l-1.664,0Zm8.32,-3.5c1.227,0.361 2.299,1.097 3.219,2.208c0.92,1.111 1.379,2.583 1.379,4.417c0,1.611 -0.277,2.965 -0.832,4.062c-0.554,1.097 -1.291,1.986 -2.211,2.667c-0.92,0.68 -1.971,1.166 -3.153,1.458c-1.182,0.292 -2.401,0.438 -3.657,0.438l-11.867,0l0,-29.5l10.773,0c1.022,0 2.116,0.09 3.284,0.27c1.168,0.181 2.241,0.542 3.219,1.084c0.978,0.541 1.788,1.333 2.43,2.375c0.642,1.041 0.963,2.409 0.963,4.104c0,1.583 -0.328,2.889 -0.985,3.917c-0.657,1.027 -1.525,1.819 -2.605,2.375l0.043,0.125Z" style="fill-rule:nonzero;"/><path d="M586.044,206.659l2.54,0l0,5.583l-3.153,0l-0.876,7.792l-4.817,0l0.876,-7.792l-1.358,0l-0.919,7.792l-4.817,0l0.876,-7.792l-2.54,0l0,-5.583l3.153,0l0.35,-2.75l-2.584,0l0,-5.584l3.153,0l0.876,-7.791l4.861,0l-0.876,7.791l1.358,0l0.919,-7.791l4.817,0l-0.919,7.791l2.539,0l0,5.584l-3.152,0l-0.307,2.75Zm-6.175,0l1.358,0l0.35,-2.75l-1.445,0l-0.263,2.75Z" style="fill-rule:nonzero;"/><path d="M34.301,197.992l0,3.875l1.577,0c0.613,0 1.102,-0.16 1.467,-0.479c0.365,-0.32 0.547,-0.841 0.547,-1.563c0,-0.611 -0.19,-1.069 -0.569,-1.375c-0.38,-0.305 -0.861,-0.458 -1.445,-0.458l-1.577,0Zm0,10.292l0,4.25l1.664,0c0.672,0 1.219,-0.188 1.642,-0.563c0.424,-0.375 0.635,-0.882 0.635,-1.521c0,-0.75 -0.233,-1.298 -0.7,-1.646c-0.467,-0.347 -0.993,-0.52 -1.577,-0.52l-1.664,0Zm8.321,-3.5c1.226,0.361 2.299,1.097 3.218,2.208c0.92,1.111 1.38,2.583 1.38,4.417c0,1.611 -0.278,2.965 -0.832,4.062c-0.555,1.097 -1.292,1.986 -2.212,2.667c-0.919,0.68 -1.97,1.166 -3.153,1.458c-1.182,0.292 -2.401,0.438 -3.656,0.438l-11.868,0l0,-29.5l10.773,0c1.022,0 2.116,0.09 3.284,0.27c1.168,0.181 2.241,0.542 3.219,1.084c0.978,0.541 1.788,1.333 2.43,2.375c0.643,1.041 0.964,2.409 0.964,4.104c0,1.583 -0.329,2.889 -0.986,3.917c-0.657,1.027 -1.525,1.819 -2.605,2.375l0.044,0.125Z" style="fill-rule:nonzero;"/><path d="M64.298,206.659l2.54,0l0,5.583l-3.153,0l-0.876,7.792l-4.817,0l0.876,-7.792l-1.357,0l-0.92,7.792l-4.817,0l0.876,-7.792l-2.54,0l0,-5.583l3.153,0l0.35,-2.75l-2.584,0l0,-5.584l3.153,0l0.876,-7.791l4.861,0l-0.876,7.791l1.358,0l0.919,-7.791l4.817,0l-0.919,7.791l2.54,0l0,5.584l-3.153,0l-0.307,2.75Zm-6.174,0l1.357,0l0.35,-2.75l-1.445,0l-0.262,2.75Z" style="fill-rule:nonzero;"/></g></svg>