<?xml version="1.0" encoding="UTF-8" standalone="no"?><!DOCTYPE svg PUBLIC "-//W3C//DTD SVG 1.1//EN" "http://www.w3.org/Graphics/SVG/1.1/DTD/svg11.dtd"><svg width="100%" height="100%" viewBox="0 0 609 310" version="1.1" xmlns="http://www.w3.org/2000/svg" xmlns:xlink="http://www.w3.org/1999/xlink" xml:space="preserve" xmlns:serif="http://www.serif.com/" style="fill-rule:evenodd;clip-rule:evenodd;stroke-linecap:round;stroke-linejoin:round;stroke-miterlimit:1.5;"><rect id="One-Octave---Real-Proportions" serif:id="One Octave - Real Proportions" x="0" y="0" width="608.203" height="309.067" style="fill:none;"/><g><rect x="4.089" y="4.394" width="75" height="300" style="fill:#ebebeb;stroke:#000;stroke-width:4.17px;"/><rect x="79.089" y="4.394" width="75" height="300" style="fill:#ebebeb;stroke:#000;stroke-width:4.17px;"/><rect x="304.089" y="4.394" width="75" height="300" style="fill:#ebebeb;stroke:#000;stroke-width:4.17px;"/><rect x="379.089" y="4.394" width="75" height="300" style="fill:#ebebeb;stroke:#000;stroke-width:4.17px;"/><rect x="454.089" y="4.394" width="75" height="300" style="fill:#ebebeb;stroke:#000;stroke-width:4.17px;"/><rect x="529.089" y="4.394" width="75" height="300" style="fill:#ebebeb;stroke:#000;stroke-width:4.17px;"/><rect x="229.089" y="4.394" width="75" height="300" style="fill:#ebebeb;stroke:#000;stroke-width:4.17px;"/><rect x="154.089" y="4.394" width="75" height="300" style="fill:#ebebeb;stroke:#000;stroke-width:4.17px;"/></g><g><rect x="581.917" y="3.507" width="21.712" height="193.294"/><clipPath id="_clip1"><rect x="581.917" y="3.507" width="21.712" height="193.294"/></clipPath><g clip-path="url(#_clip1)"><path d="M586.696,9.226l0,182.301l15.034,0" style="fill:none;stroke:#4d4d4d;stroke-width:6.25px;"/></g><path d="M603.63,196.801l-21.713,0l0,-193.294l21.713,0l0,193.294Zm-17.546,-189.127l0,184.961l13.379,0l0,-184.961l-13.379,0Z"/><rect x="431.519" y="3.507" width="43.408" height="193.294"/><path d="M436.761,9.226l0,182.301l32.116,0" style="fill:none;stroke:#4d4d4d;stroke-width:6.25px;"/><path d="M474.927,196.801l-43.408,0l0,-193.294l43.408,0l0,193.294Zm-39.242,-189.127l0,184.961l35.075,0l0,-184.961l-35.075,0Z"/><rect x="356.71" y="3.507" width="43.408" height="193.294"/><path d="M362.007,9.226l0,182.301l32.116,0" style="fill:none;stroke:#4d4d4d;stroke-width:6.25px;"/><path d="M400.118,196.801l-43.408,0l0,-193.294l43.408,0l0,193.294Zm-39.241,-189.127l0,184.961l35.074,0l0,-184.961l-35.074,0Z"/><rect x="281.93" y="3.507" width="43.408" height="193.294"/><path d="M286.504,9.226l0,182.301l32.116,0" style="fill:none;stroke:#4d4d4d;stroke-width:6.25px;"/><path d="M325.338,196.801l-43.408,0l0,-193.294l43.408,0l0,193.294Zm-39.242,-189.127l0,184.961l35.075,0l0,-184.961l-35.075,0Z"/><rect x="134.037" y="3.507" width="43.408" height="193.294"/><path d="M138.618,9.226l0,182.301l32.116,0" style="fill:none;stroke:#4d4d4d;stroke-width:6.25px;"/><path d="M177.446,196.801l-43.409,0l0,-193.294l43.409,0l0,193.294Zm-39.242,-189.127l0,184.961l35.075,0l0,-184.961l-35.075,0Z"/><rect x="57.048" y="3.507" width="43.408" height="193.294"/><path d="M61.709,9.226l0,182.301l32.116,0" style="fill:none;stroke:#4d4d4d;stroke-width:6.25px;"/><path d="M100.456,196.801l-43.408,0l0,-193.294l43.408,0l0,193.294Zm-39.242,-189.127l0,184.961l35.075,0l0,-184.961l-35.075,0Z"/></g></svg>